<?xml version="1.0" standalone="no"?>
<!DOCTYPE svg PUBLIC "-//W3C//DTD SVG 20010904//EN"
 "http://www.w3.org/TR/2001/REC-SVG-20010904/DTD/svg10.dtd">
<svg version="1.0" xmlns="http://www.w3.org/2000/svg"
 width="700.000000pt" height="700.000000pt" viewBox="0 0 700.000000 700.000000"
 preserveAspectRatio="xMidYMid meet">
<metadata>
Created by potrace 1.14, written by Peter Selinger 2001-2017
</metadata>
<g transform="translate(0.000000,700.000000) scale(0.100000,-0.100000)"
fill="#000000" stroke="none">
<path d="M1423 5577 l-673 -673 29 -25 c26 -23 108 -53 341 -124 47 -14 94
-30 105 -35 11 -5 56 -24 100 -44 316 -138 644 -359 919 -618 l29 -28 53 30
c98 53 186 75 309 74 61 0 124 -3 140 -6 24 -5 156 -33 250 -54 113 -24 234
-45 350 -60 22 -3 51 -8 65 -10 14 -3 89 -7 166 -10 112 -3 144 -1 153 10 6 7
30 51 52 97 23 46 49 95 59 110 21 28 20 33 -10 174 -36 172 -17 268 68 359
48 50 142 96 185 89 55 -9 116 -44 157 -91 l40 -45 0 40 c0 117 71 218 174
248 83 24 144 26 201 4 132 -49 209 -231 214 -499 1 -41 5 -80 9 -86 4 -6 36
-14 72 -18 109 -11 141 -16 243 -37 95 -20 209 -52 296 -83 24 -9 44 -16 45
-16 0 0 1 30 0 68 -1 169 66 347 134 354 9 0 24 2 32 3 51 5 100 -58 100 -130
0 -19 5 -35 10 -35 6 0 10 4 10 8 0 12 92 102 104 102 6 0 75 64 154 143 l142
142 -673 673 -672 672 -700 -700 c-385 -385 -702 -700 -705 -700 -3 0 -320
315 -705 700 l-700 700 -672 -673z"/>
<path d="M180 5009 c-12 -8 -7 -17 30 -50 42 -37 146 -92 415 -219 466 -220
776 -385 935 -497 207 -148 440 -334 525 -422 l40 -42 -19 -32 c-34 -58 -94
-181 -111 -227 -79 -219 -97 -364 -86 -685 4 -105 3 -107 -35 -150 -20 -22
-64 -76 -98 -120 -102 -129 -119 -177 -69 -196 58 -22 159 -4 250 43 23 13 45
19 49 15 4 -4 -14 -71 -40 -150 -28 -82 -51 -168 -53 -204 -5 -57 -4 -62 20
-78 17 -11 36 -14 59 -10 33 6 52 23 263 224 39 37 98 91 133 121 l63 54 142
-27 c165 -31 185 -34 327 -51 46 -6 166 -15 275 -21 87 -5 419 -5 495 0 179
12 349 35 418 56 44 14 72 4 302 -111 231 -116 351 -161 434 -163 51 -1 61 2
78 23 16 20 19 33 14 73 -9 61 -32 103 -115 202 -129 154 -138 171 -98 177 32
5 103 -15 246 -67 144 -54 234 -64 270 -31 27 24 26 39 -4 105 -27 58 -104
153 -190 236 -69 66 -95 110 -95 162 0 82 -8 75 265 218 436 229 629 344 693
414 90 98 84 238 -16 361 -44 54 -70 76 -131 112 -219 129 -489 213 -776 243
-110 11 -151 18 -161 26 -7 6 -12 46 -13 97 -5 259 -44 405 -123 465 -43 33
-84 38 -155 22 -65 -15 -106 -51 -121 -109 -20 -72 -2 -220 48 -391 26 -91 26
-105 -2 -105 -35 1 -76 44 -104 107 -117 268 -196 358 -285 324 -38 -14 -95
-67 -114 -104 -28 -55 -28 -106 -1 -240 31 -155 32 -175 6 -202 -11 -12 -41
-66 -65 -121 -54 -122 -91 -164 -143 -165 -122 -4 -168 -3 -267 8 -166 17
-237 29 -525 88 -362 73 -427 71 -608 -26 -41 -21 -81 -39 -90 -39 -9 1 -60
41 -112 91 -304 289 -798 580 -1135 669 -189 50 -343 111 -625 248 -158 76
-188 86 -210 71z m4560 -1056 c36 -81 93 -125 179 -139 52 -8 58 -17 23 -34
-38 -18 -131 -21 -162 -5 -35 18 -67 80 -74 143 -5 46 -1 82 10 82 2 0 12 -21
24 -47z m508 -395 c-10 -32 -347 -182 -366 -163 -7 7 91 72 167 110 115 58
208 82 199 53z m62 -117 c0 -5 -40 -47 -89 -93 -96 -90 -171 -140 -171 -114 0
37 155 184 220 209 23 9 40 8 40 -2z"/>
<path d="M5706 4558 c-30 -46 -49 -149 -50 -270 0 -64 3 -120 7 -125 18 -17
54 46 68 114 15 80 16 280 1 295 -7 7 -15 3 -26 -14z"/>
<path d="M5948 4493 c-48 -51 -112 -147 -145 -219 -28 -62 -36 -134 -16 -141
38 -13 214 304 210 380 -1 25 -9 22 -49 -20z"/>
<path d="M1715 3941 c137 -138 252 -251 256 -251 3 0 13 17 23 37 l18 37 -44
41 c-85 81 -333 275 -453 354 -34 23 30 -47 200 -218z"/>
<path d="M1283 2627 l-533 -532 673 -672 672 -673 700 700 c385 385 703 699
707 698 5 -2 322 -317 706 -700 l697 -697 673 672 672 672 -495 495 -495 495
-103 -54 c-56 -30 -106 -57 -111 -62 -19 -17 8 -61 83 -137 141 -145 221 -270
221 -348 0 -38 -23 -91 -49 -112 -65 -52 -190 -51 -323 3 -32 12 -58 21 -58
19 0 -2 15 -24 34 -49 51 -66 79 -148 74 -218 -5 -69 -27 -103 -89 -135 -90
-48 -239 -11 -509 126 -91 46 -194 96 -229 112 -59 26 -66 26 -107 14 -24 -7
-70 -16 -101 -20 -32 -3 -60 -8 -63 -9 -3 -2 -44 -6 -90 -10 -47 -4 -101 -8
-120 -11 -48 -5 -460 -5 -540 0 -69 5 -181 14 -240 21 -144 16 -169 19 -265
36 -33 6 -70 12 -83 14 -12 2 -30 6 -40 9 -58 17 -70 14 -121 -29 -28 -24 -57
-50 -64 -57 -66 -65 -280 -263 -298 -276 -36 -25 -150 -23 -186 4 -36 27 -61
70 -67 116 -5 39 15 138 39 201 19 48 19 47 -7 41 -45 -10 -144 -5 -176 8 -78
34 -103 122 -58 210 23 46 126 183 179 240 l25 27 -2 200 c0 111 -1 201 -1
201 0 0 -240 -240 -532 -533z"/>
</g>
</svg>
